<svg width="351px" height="364px" viewBox="0 0 351 364" version="1.1" xmlns="http://www.w3.org/2000/svg" xmlns:xlink="http://www.w3.org/1999/xlink">    <g id="Page-1" stroke="none" stroke-width="1">        <g id="ebook_landing_malicious-copy" transform="translate(-475.000000, -224.000000)">            <path d="M642.288864,413.089294 C568.623832,413.089294 487.962681,397.037784 480.143487,382.992712 C472.73583,368.546353 571.916124,348.883253 571.916124,348.883253 C595.785241,359.718022 641.877327,359.718022 641.877327,359.718022 C641.877327,359.718022 687.969414,359.718022 711.83853,348.883253 C711.83853,348.883253 811.43036,368.145065 804.022704,382.591425 C796.615047,397.037784 713.896213,413.089294 642.288864,413.089294 Z M704.017279,321.194799 C650.105999,338.048885 574.383285,321.194799 574.383285,321.194799 C574.383285,321.194799 588.787063,223.280586 603.606491,224.083161 C618.010269,224.885737 621.709982,246.153988 637.759905,246.153988 C653.809828,246.153988 669.45233,212.847104 679.740742,228.096039 C690.029154,243.344974 704.017279,321.194799 704.017279,321.194799 Z M573.973395,417.905149 C596.196365,424.72704 634.469259,422.720602 634.057722,423.121889 L649.696109,423.121889 L653.399937,423.121889 C663.276813,423.523177 691.672831,423.924465 709.780436,417.905149 C709.780436,417.905149 716.36502,447.600443 676.857517,448.403018 C676.857517,448.403018 661.630667,448.403018 653.811474,435.160522 C651.342255,431.147645 647.22689,428.739918 642.699989,428.739918 L641.053843,428.739918 C636.115405,428.739918 632.411576,431.147645 629.942358,435.160522 C622.123164,448.403018 606.896314,448.403018 606.896314,448.403018 C567.388811,447.600443 573.973395,417.905149 573.973395,417.905149 Z M527.882131,413.490983 L558.335832,417.905149 C558.335832,417.905149 576.007645,475.229994 638.149655,519.772935 L635.293155,549.928821 C635.293155,549.928821 557.512759,509.398757 532.820569,504.583304 L565.743488,476.894449 C565.743488,476.894449 503.601479,457.632637 480.143899,457.632637 L475.205461,457.632637 L527.882131,413.490983 Z M761.632388,413.090097 L825.420543,456.429175 C825.420543,456.429175 751.759627,465.658793 726.24025,481.309016 L765.336216,499.366965 C765.336216,499.366965 688.922435,512.646951 649.826468,588.08905 C649.826468,588.08905 624.183316,520.635216 722.536421,448.002132 C722.536421,448.002132 729.532542,428.339032 727.474859,417.504262 L761.632388,413.090097 Z" id="Combined-Shape"></path>        </g>    </g></svg>