<svg enable-background="new 0 0 512 512" height="512px" id="PictoFoundry_Icons" version="1.1" viewBox="0 0 512 512" width="512px" xml:space="preserve" xmlns="http://www.w3.org/2000/svg" xmlns:xlink="http://www.w3.org/1999/xlink"><g id="_x3C_BrokenHeart_x3E_"><path d="M396.768,12.196C388.527,11.394,380.812,11,373.58,11c-29.875,0-51.705,6.696-70.232,18.331l-19.125,79.643   l18.902,22.312l-25.366,78.5l15.384,19.651l-46.384,104.474l9.295-79.349l-26.339-30.268l18.339-57.018l-34.991-39.045l23.5-75.884   C211.446,26.84,184.446,11,138.411,11c-7.232,0-14.946,0.394-23.196,1.196C65.071,17.099,9.143,63.019,0,151.019v29.285   c9.143,84.224,70.161,188.116,256,318.465C441.821,368.42,505.42,264.527,512,180.304v-29.285   C504.92,63.019,446.92,17.099,396.768,12.196z" fill="#010101"></path></g></svg>