<svg data-name="Layer 1" id="Layer_1" viewBox="0 0 288 288" xmlns="http://www.w3.org/2000/svg"><path class="cls-1" d="M271.46,150.14L223.46,67A4,4,0,0,0,218,65.54l-27.71,16A4,4,0,0,0,188.82,87l48,83.14a4,4,0,0,0,5.46,1.46l27.71-16A4,4,0,0,0,271.46,150.14Z"></path><path class="cls-1" d="M160,96.14a4,4,0,0,0-2.83,1.17l-7.52,7.52L172.81,128a8.91,8.91,0,0,1,2.55,7.49,8.69,8.69,0,0,1-4.25,6.45,21.3,21.3,0,0,1-10.89,2.84,32,32,0,0,1-12.13-2.62h0c-5.62-2.3-10.23-4.14-13.68-5.45h0a6.5,6.5,0,0,0-6.88,1.49h0l-47,46.88,11.91,7.46L130,164.19a4,4,0,0,1,4.82,6.39l-35.13,26.5,9,5.65,36.38-27.44a4,4,0,1,1,4.82,6.39l-33.94,25.6,7.94,5,37.19-28.05a4,4,0,1,1,4.82,6.39l-34.75,26.21,2.26,1.42a20.12,20.12,0,0,0,21.24,0l74-46.34L184.86,96.14H160Z"></path><path class="cls-1" d="M97.71,81.54L70,65.54A4,4,0,0,0,64.54,67l-48,83.14A4,4,0,0,0,18,155.6l27.71,16a4,4,0,0,0,5.46-1.46L99.18,87A4,4,0,0,0,97.71,81.54Z"></path><path class="cls-1" d="M121.86,132.52a14.5,14.5,0,0,1,15.37-3.31h0c3.52,1.34,8.19,3.2,13.88,5.52h0c6.32,2.59,11.84,2.69,16,.28a0.72,0.72,0,0,0,.35-0.56,1,1,0,0,0-.27-0.81L130.77,97.27h0A4,4,0,0,0,128,96.14H103.14L59.42,171.87l14.11,8.84,48.33-48.18h0Z"></path></svg>