<svg enable-background="new 0 0 16 16" height="16px" id="Layer_1" version="1.1" viewBox="0 0 16 16" width="16px" xml:space="preserve" xmlns="http://www.w3.org/2000/svg" xmlns:xlink="http://www.w3.org/1999/xlink"><g><defs><rect height="16" id="SVGID_1_" width="16"></rect></defs><path d="M4,11c-1.105,0-2,0.895-2,2s0.895,2,2,2c1.104,0,2-0.895,2-2S5.104,11,4,11"></path><path d="M13,11c-1.105,0-2,0.895-2,2s0.895,2,2,2c1.104,0,2-0.895,2-2S14.104,11,13,11"></path><path d="M15.5,1h-10C5.225,1,5,1.225,5,1.5V3H2.5C2.225,3,1.898,3.201,1.775,3.447   L0.223,6.553C0.1,6.799,0,7.225,0,7.5v3c0,0.275,0.158,0.659,0.354,0.854l0.292,0.293c0.129,0.131,0.344,0.239,0.553,0.302   C1.629,10.813,2.717,10,4,10c1.301,0,2.4,0.838,2.814,2h3.37c0.414-1.162,1.515-2,2.816-2c1.264,0,2.344,0.789,2.783,1.898   C15.91,11.809,16,11.667,16,11.5v-10C16,1.225,15.773,1,15.5,1 M5,7H2l1-3h2V7z"></path></g></svg>