<svg height="24px" id="Layer_1" style="enable-background:new 0 0 24 24;" version="1.1" viewBox="0 0 24 24" width="24px" xml:space="preserve" xmlns="http://www.w3.org/2000/svg" xmlns:xlink="http://www.w3.org/1999/xlink"><path d="M20.3069458,6.4331665l-5.9567261,3.7229614C14.7510376,10.6661377,15,11.3009644,15,12c0,1.6568604-1.3431396,3-3,3  s-3-1.3431396-3-3s1.3431396-3,3-3c0.6990356,0,1.3338623,0.2489624,1.8438721,0.6497803l3.7229614-5.956665  C15.9754639,2.6245728,14.0609131,2,12,2C6.4771729,2,2,6.4771118,2,12c0,2.0889893,0.642395,4.0269775,1.737793,5.6311035L9,15  l-2.6311035,5.262207C7.9730225,21.357605,9.9110107,22,12,22c5.5228271,0,10-4.4771729,10-10  C22,9.9390869,21.3754883,8.0245361,20.3069458,6.4331665z"></path></svg>